<?xml version="1.0" encoding="UTF-8"?>
<!DOCTYPE svg PUBLIC "-//W3C//DTD SVG 1.1//EN" "http://www.w3.org/Graphics/SVG/1.1/DTD/svg11.dtd">
<svg xmlns="http://www.w3.org/2000/svg" version="1.1" width="372px" height="417px" style="shape-rendering:geometricPrecision; text-rendering:geometricPrecision; image-rendering:optimizeQuality; fill-rule:evenodd; clip-rule:evenodd" xmlns:xlink="http://www.w3.org/1999/xlink">
<g><path style="opacity:0.819" fill="#6c6e70" d="M 170.5,9.5 C 181.172,9.3335 191.839,9.50016 202.5,10C 203.126,10.7504 203.626,11.5838 204,12.5C 204.667,18.1667 204.667,23.8333 204,29.5C 203.5,31.3333 202.333,32.5 200.5,33C 204.34,36.1857 206.34,40.019 206.5,44.5C 193.212,45.648 179.879,45.8146 166.5,45C 165.978,44.4387 165.645,43.772 165.5,43C 166.273,38.5515 168.606,35.2181 172.5,33C 170.667,32.5 169.5,31.3333 169,29.5C 167.962,22.6285 168.462,15.9618 170.5,9.5 Z M 174.5,15.5 C 176.833,15.5 179.167,15.5 181.5,15.5C 181.5,17.8333 181.5,20.1667 181.5,22.5C 179.167,22.5 176.833,22.5 174.5,22.5C 174.5,20.1667 174.5,17.8333 174.5,15.5 Z"/></g>
<g><path style="opacity:0.91" fill="#edf0f9" d="M 153.5,40.5 C 151.833,40.5 150.167,40.5 148.5,40.5C 150.286,38.0776 151.952,38.0776 153.5,40.5 Z"/></g>
<g><path style="opacity:0.749" fill="#ebeef9" d="M 222.5,40.5 C 220.833,40.5 219.167,40.5 217.5,40.5C 219.167,37.8333 220.833,37.8333 222.5,40.5 Z"/></g>
<g><path style="opacity:0.979" fill="#c5d0ec" d="M 148.5,40.5 C 150.167,40.5 151.833,40.5 153.5,40.5C 153.715,42.1788 153.048,43.1788 151.5,43.5C 149.5,42.8333 147.5,42.1667 145.5,41.5C 146.391,40.8902 147.391,40.5569 148.5,40.5 Z"/></g>
<g><path style="opacity:0.976" fill="#c2ceeb" d="M 217.5,40.5 C 219.167,40.5 220.833,40.5 222.5,40.5C 223.609,40.5569 224.609,40.8902 225.5,41.5C 223.393,42.4682 221.059,42.8016 218.5,42.5C 216.576,42.2893 216.243,41.6226 217.5,40.5 Z"/></g>
<g><path style="opacity:0.957" fill="#a8bbe1" d="M 145.5,41.5 C 147.5,42.1667 149.5,42.8333 151.5,43.5C 151.5,44.1667 151.167,44.5 150.5,44.5C 148.393,43.5318 146.059,43.1984 143.5,43.5C 143.833,42.5 144.5,41.8333 145.5,41.5 Z"/></g>
<g><path style="opacity:0.941" fill="#a4b8e0" d="M 225.5,41.5 C 226.167,41.8333 226.833,42.1667 227.5,42.5C 225.393,43.4682 223.059,43.8016 220.5,43.5C 219.508,43.6716 218.842,43.3382 218.5,42.5C 221.059,42.8016 223.393,42.4682 225.5,41.5 Z"/></g>
<g><path style="opacity:0.967" fill="#90abd9" d="M 141.5,44.5 C 141.842,43.6618 142.508,43.3284 143.5,43.5C 146.059,43.1984 148.393,43.5318 150.5,44.5C 149.833,44.8333 149.167,45.1667 148.5,45.5C 146.393,44.5318 144.059,44.1984 141.5,44.5 Z"/></g>
<g><path style="opacity:0.895" fill="#89a6d7" d="M 227.5,42.5 C 228.5,42.8333 229.167,43.5 229.5,44.5C 226.833,44.5 224.167,44.5 221.5,44.5C 220.833,44.5 220.5,44.1667 220.5,43.5C 223.059,43.8016 225.393,43.4682 227.5,42.5 Z"/></g>
<g><path style="opacity:0.98" fill="#6491cc" d="M 141.5,44.5 C 144.059,44.1984 146.393,44.5318 148.5,45.5C 147.609,46.1098 146.609,46.4431 145.5,46.5C 142.941,46.8016 140.607,46.4682 138.5,45.5C 139.391,44.8902 140.391,44.5569 141.5,44.5 Z"/></g>
<g><path style="opacity:0.986" fill="#5a8bc9" d="M 221.5,44.5 C 224.167,44.5 226.833,44.5 229.5,44.5C 230.609,44.5569 231.609,44.8902 232.5,45.5C 230.393,46.4682 228.059,46.8016 225.5,46.5C 223.847,46.3404 222.514,45.6737 221.5,44.5 Z"/></g>
<g><path style="opacity:1" fill="#3a7dc1" d="M 138.5,45.5 C 140.607,46.4682 142.941,46.8016 145.5,46.5C 145.5,47.1667 145.167,47.5 144.5,47.5C 141.941,47.8016 139.607,47.4682 137.5,46.5C 137.5,45.8333 137.833,45.5 138.5,45.5 Z"/></g>
<g><path style="opacity:0.714" fill="#1e75bb" d="M 232.5,45.5 C 256.31,59.5434 280.31,73.2101 304.5,86.5C 302.5,87.1667 300.5,87.8333 298.5,88.5C 273.669,75.2548 249.336,61.2548 225.5,46.5C 228.059,46.8016 230.393,46.4682 232.5,45.5 Z"/></g>
<g><path style="opacity:0.714" fill="#1e75bb" d="M 137.5,46.5 C 139.607,47.4682 141.941,47.8016 144.5,47.5C 119.869,61.8183 95.2021,76.1516 70.5,90.5C 68.1667,89.8333 65.8333,89.1667 63.5,88.5C 88.1667,74.5 112.833,60.5 137.5,46.5 Z"/></g>
<g><path style="opacity:0.788" fill="#fafafd" d="M 188.5,62.5 C 187.167,62.5 185.833,62.5 184.5,62.5C 184.62,61.4138 185.287,60.7472 186.5,60.5C 187.713,60.7472 188.38,61.4138 188.5,62.5 Z"/></g>
<g><path style="opacity:0.788" fill="#e6eaf8" d="M 184.5,62.5 C 185.833,62.5 187.167,62.5 188.5,62.5C 188.5,63.1667 188.5,63.8333 188.5,64.5C 187.167,64.5 185.833,64.5 184.5,64.5C 184.5,63.8333 184.5,63.1667 184.5,62.5 Z"/></g>
<g><path style="opacity:0.788" fill="#d1daf0" d="M 184.5,64.5 C 185.833,64.5 187.167,64.5 188.5,64.5C 188.5,65.1667 188.5,65.8333 188.5,66.5C 187.167,66.5 185.833,66.5 184.5,66.5C 184.5,65.8333 184.5,65.1667 184.5,64.5 Z"/></g>
<g><path style="opacity:0.788" fill="#bdcae9" d="M 184.5,66.5 C 185.833,66.5 187.167,66.5 188.5,66.5C 188.5,67.1667 188.5,67.8333 188.5,68.5C 187.167,68.5 185.833,68.5 184.5,68.5C 184.5,67.8333 184.5,67.1667 184.5,66.5 Z"/></g>
<g><path style="opacity:0.788" fill="#a6bae1" d="M 184.5,68.5 C 185.833,68.5 187.167,68.5 188.5,68.5C 188.5,69.1667 188.5,69.8333 188.5,70.5C 187.167,70.5 185.833,70.5 184.5,70.5C 184.5,69.8333 184.5,69.1667 184.5,68.5 Z"/></g>
<g><path style="opacity:0.788" fill="#90abd9" d="M 184.5,70.5 C 185.833,70.5 187.167,70.5 188.5,70.5C 188.5,71.1667 188.5,71.8333 188.5,72.5C 187.167,72.5 185.833,72.5 184.5,72.5C 184.5,71.8333 184.5,71.1667 184.5,70.5 Z"/></g>
<g><path style="opacity:0.788" fill="#789cd1" d="M 184.5,72.5 C 185.833,72.5 187.167,72.5 188.5,72.5C 188.5,73.1667 188.5,73.8333 188.5,74.5C 187.167,74.5 185.833,74.5 184.5,74.5C 184.5,73.8333 184.5,73.1667 184.5,72.5 Z"/></g>
<g><path style="opacity:0.788" fill="#5c8dc9" d="M 184.5,74.5 C 185.833,74.5 187.167,74.5 188.5,74.5C 188.5,75.1667 188.5,75.8333 188.5,76.5C 187.167,76.5 185.833,76.5 184.5,76.5C 184.5,75.8333 184.5,75.1667 184.5,74.5 Z"/></g>
<g><path style="opacity:0.788" fill="#3f7fc1" d="M 184.5,76.5 C 185.833,76.5 187.167,76.5 188.5,76.5C 188.5,77.1667 188.5,77.8333 188.5,78.5C 187.167,78.5 185.833,78.5 184.5,78.5C 184.5,77.8333 184.5,77.1667 184.5,76.5 Z"/></g>
<g><path style="opacity:0.932" fill="#6d6e70" d="M 219.5,77.5 C 251.103,94.6362 282.436,112.303 313.5,130.5C 314.521,131.002 314.688,131.668 314,132.5C 306.144,137.095 298.144,141.428 290,145.5C 285.852,143.426 281.852,141.093 278,138.5C 268.915,143.96 259.749,149.293 250.5,154.5C 249.668,143.849 249.168,133.182 249,122.5C 239.333,116.833 229.667,111.167 220,105.5C 219.5,96.1726 219.334,86.8393 219.5,77.5 Z"/></g>
<g><path style="opacity:0.788" fill="#1e75bb" d="M 184.5,78.5 C 185.833,78.5 187.167,78.5 188.5,78.5C 188.5,108.833 188.5,139.167 188.5,169.5C 187.167,169.5 185.833,169.5 184.5,169.5C 184.5,139.167 184.5,108.833 184.5,78.5 Z"/></g>
<g><path style="opacity:0.682" fill="#3b7ec1" d="M 304.5,86.5 C 305.5,86.8333 306.167,87.5 306.5,88.5C 303.833,88.5 301.167,88.5 298.5,88.5C 300.5,87.8333 302.5,87.1667 304.5,86.5 Z"/></g>
<g><path style="opacity:0.984" fill="#6792cd" d="M 298.5,88.5 C 301.167,88.5 303.833,88.5 306.5,88.5C 307.609,88.5569 308.609,88.8902 309.5,89.5C 307.393,90.4682 305.059,90.8016 302.5,90.5C 300.847,90.3404 299.514,89.6737 298.5,88.5 Z"/></g>
<g><path style="opacity:0.974" fill="#4482c3" d="M 63.5,88.5 C 65.8333,89.1667 68.1667,89.8333 70.5,90.5C 69.609,91.1098 68.609,91.4431 67.5,91.5C 64.8333,91.5 62.1667,91.5 59.5,91.5C 60.795,90.5116 62.1283,89.5116 63.5,88.5 Z"/></g>
<g><path style="opacity:0.941" fill="#96afdc" d="M 309.5,89.5 C 310.167,89.8333 310.833,90.1667 311.5,90.5C 309.167,91.1667 306.833,91.8333 304.5,92.5C 303.5,92.1667 302.833,91.5 302.5,90.5C 305.059,90.8016 307.393,90.4682 309.5,89.5 Z"/></g>
<g><path style="opacity:0.93" fill="#b7c6e7" d="M 311.5,90.5 C 313.382,91.221 313.715,92.221 312.5,93.5C 310.833,93.5 309.167,93.5 307.5,93.5C 306.391,93.4431 305.391,93.1098 304.5,92.5C 306.833,91.8333 309.167,91.1667 311.5,90.5 Z"/></g>
<g><path style="opacity:0.949" fill="#8ba8d8" d="M 59.5,91.5 C 62.1667,91.5 64.8333,91.5 67.5,91.5C 66.205,92.4884 64.8717,93.4884 63.5,94.5C 61.3926,93.5318 59.0593,93.1984 56.5,93.5C 56.9731,92.0937 57.9731,91.427 59.5,91.5 Z"/></g>
<g><path style="opacity:0.844" fill="#6d6e70" d="M 111.5,93.5 C 112.5,93.5 113.5,93.5 114.5,93.5C 114.976,104.663 114.476,115.663 113,126.5C 103.546,121.195 94.3794,115.528 85.5,109.5C 94.1946,104.156 102.861,98.8223 111.5,93.5 Z"/></g>
<g><path style="opacity:0.874" fill="#bccae9" d="M 56.5,93.5 C 59.0593,93.1984 61.3926,93.5318 63.5,94.5C 62.609,95.1098 61.609,95.4431 60.5,95.5C 58.8333,95.5 57.1667,95.5 55.5,95.5C 54.2426,94.3774 54.5759,93.7107 56.5,93.5 Z"/></g>
<g><path style="opacity:0.655" fill="#eaedf8" d="M 307.5,93.5 C 309.167,93.5 310.833,93.5 312.5,93.5C 311.084,95.8507 309.417,95.8507 307.5,93.5 Z"/></g>
<g><path style="opacity:0.004" fill="#e8edf8" d="M 55.5,95.5 C 57.1667,95.5 58.8333,95.5 60.5,95.5C 59.2347,96.4793 57.9014,97.4793 56.5,98.5C 55.6143,97.675 55.281,96.675 55.5,95.5 Z"/></g>
<g><path style="opacity:0.784" fill="#6c6e70" d="M 11.5,100.5 C 21.1724,100.334 30.8391,100.5 40.5,101C 41.7014,101.903 42.5348,103.069 43,104.5C 43.9148,110.944 43.5815,117.277 42,123.5C 31.5769,124.652 21.0769,124.819 10.5,124C 10,123.5 9.5,123 9,122.5C 8.33333,115.833 8.33333,109.167 9,102.5C 9.9947,101.934 10.828,101.267 11.5,100.5 Z M 14.5,107.5 C 16.5,107.5 18.5,107.5 20.5,107.5C 20.5,109.833 20.5,112.167 20.5,114.5C 18.5,114.5 16.5,114.5 14.5,114.5C 14.5,112.167 14.5,109.833 14.5,107.5 Z"/></g>
<g><path style="opacity:0.783" fill="#6c6e70" d="M 329.5,100.5 C 339.506,100.334 349.506,100.5 359.5,101C 360,101.5 360.5,102 361,102.5C 361.667,109.5 361.667,116.5 361,123.5C 350.243,124.653 339.41,124.82 328.5,124C 327.874,123.25 327.374,122.416 327,121.5C 326.333,115.5 326.333,109.5 327,103.5C 328.045,102.627 328.878,101.627 329.5,100.5 Z M 333.5,107.5 C 335.5,107.5 337.5,107.5 339.5,107.5C 339.5,109.833 339.5,112.167 339.5,114.5C 337.5,114.5 335.5,114.5 333.5,114.5C 333.5,112.167 333.5,109.833 333.5,107.5 Z"/></g>
<g><path style="opacity:0.942" fill="#1e75bb" d="M 82.5,112.5 C 93.3844,117.858 103.884,123.858 114,130.5C 114.667,162.5 114.667,194.5 114,226.5C 103.667,232.5 93.3333,238.5 83,244.5C 82.5,200.501 82.3333,156.501 82.5,112.5 Z"/></g>
<g><path style="opacity:0.852" fill="#6c6e70" d="M 10.5,125.5 C 20.8387,125.334 31.172,125.5 41.5,126C 43.8178,128.457 45.4845,131.291 46.5,134.5C 46.1822,135.647 45.5156,136.481 44.5,137C 31.8333,137.667 19.1667,137.667 6.5,137C 5.33209,132.338 6.66542,128.505 10.5,125.5 Z"/></g>
<g><path style="opacity:0.846" fill="#6c6e70" d="M 328.5,125.5 C 339.172,125.333 349.839,125.5 360.5,126C 362.446,128.675 364.113,131.508 365.5,134.5C 365.023,135.478 364.357,136.311 363.5,137C 350.833,137.667 338.167,137.667 325.5,137C 324.572,136.612 323.905,135.945 323.5,135C 324.79,131.585 326.456,128.418 328.5,125.5 Z M 340.5,133.5 C 342.857,133.337 345.19,133.503 347.5,134C 345.236,134.236 343.069,134.736 341,135.5C 340.536,134.906 340.369,134.239 340.5,133.5 Z"/></g>
<g><path style="opacity:0.866" fill="#1d75bb" d="M 313.5,135.5 C 314.656,143.323 314.823,151.323 314,159.5C 307.085,155.626 300.251,151.626 293.5,147.5C 300.23,143.474 306.897,139.474 313.5,135.5 Z"/></g>
<g><path style="opacity:0.93" fill="#fafafd" d="M 347.5,142.5 C 346.167,142.5 344.833,142.5 343.5,142.5C 343.62,141.414 344.287,140.747 345.5,140.5C 346.713,140.747 347.38,141.414 347.5,142.5 Z"/></g>
<g><path style="opacity:0.91" fill="#1d75bb" d="M 276.5,142.5 C 277.5,142.5 278.5,142.5 279.5,142.5C 279.833,174.174 279.5,205.84 278.5,237.5C 269.167,232.167 259.833,226.833 250.5,221.5C 249.334,200.508 249.167,179.508 250,158.5C 258.98,153.267 267.813,147.933 276.5,142.5 Z"/></g>
<g><path style="opacity:0.93" fill="#e6eaf7" d="M 343.5,142.5 C 344.833,142.5 346.167,142.5 347.5,142.5C 347.5,143.167 347.5,143.833 347.5,144.5C 346.167,144.5 344.833,144.5 343.5,144.5C 343.5,143.833 343.5,143.167 343.5,142.5 Z"/></g>
<g><path style="opacity:0.93" fill="#d1d9f0" d="M 343.5,144.5 C 344.833,144.5 346.167,144.5 347.5,144.5C 347.5,145.167 347.5,145.833 347.5,146.5C 346.167,146.5 344.833,146.5 343.5,146.5C 343.5,145.833 343.5,145.167 343.5,144.5 Z"/></g>
<g><path style="opacity:0.714" fill="#f6f6fc" d="M 27.5,148.5 C 25.8333,148.5 24.1667,148.5 22.5,148.5C 22.7911,147.351 23.6244,146.684 25,146.5C 26.3756,146.684 27.2089,147.351 27.5,148.5 Z"/></g>
<g><path style="opacity:0.93" fill="#bccae9" d="M 343.5,146.5 C 344.833,146.5 346.167,146.5 347.5,146.5C 347.5,147.167 347.5,147.833 347.5,148.5C 346.167,148.5 344.833,148.5 343.5,148.5C 343.5,147.833 343.5,147.167 343.5,146.5 Z"/></g>
<g><path style="opacity:0.714" fill="#e0e6f5" d="M 22.5,148.5 C 24.1667,148.5 25.8333,148.5 27.5,148.5C 27.5,149.167 27.5,149.833 27.5,150.5C 25.8333,150.5 24.1667,150.5 22.5,150.5C 22.5,149.833 22.5,149.167 22.5,148.5 Z"/></g>
<g><path style="opacity:0.93" fill="#a6bae1" d="M 343.5,148.5 C 344.833,148.5 346.167,148.5 347.5,148.5C 347.5,149.167 347.5,149.833 347.5,150.5C 346.167,150.5 344.833,150.5 343.5,150.5C 343.5,149.833 343.5,149.167 343.5,148.5 Z"/></g>
<g><path style="opacity:0.714" fill="#cad4ee" d="M 22.5,150.5 C 24.1667,150.5 25.8333,150.5 27.5,150.5C 27.5,151.167 27.5,151.833 27.5,152.5C 25.8333,152.5 24.1667,152.5 22.5,152.5C 22.5,151.833 22.5,151.167 22.5,150.5 Z"/></g>
<g><path style="opacity:0.93" fill="#8faada" d="M 343.5,150.5 C 344.833,150.5 346.167,150.5 347.5,150.5C 347.5,151.167 347.5,151.833 347.5,152.5C 346.167,152.5 344.833,152.5 343.5,152.5C 343.5,151.833 343.5,151.167 343.5,150.5 Z"/></g>
<g><path style="opacity:0.714" fill="#b4c4e6" d="M 22.5,152.5 C 24.1667,152.5 25.8333,152.5 27.5,152.5C 27.5,153.167 27.5,153.833 27.5,154.5C 25.8333,154.5 24.1667,154.5 22.5,154.5C 22.5,153.833 22.5,153.167 22.5,152.5 Z"/></g>
<g><path style="opacity:0.93" fill="#779bd1" d="M 343.5,152.5 C 344.833,152.5 346.167,152.5 347.5,152.5C 347.5,153.167 347.5,153.833 347.5,154.5C 346.167,154.5 344.833,154.5 343.5,154.5C 343.5,153.833 343.5,153.167 343.5,152.5 Z"/></g>
<g><path style="opacity:0.714" fill="#9db3de" d="M 22.5,154.5 C 24.1667,154.5 25.8333,154.5 27.5,154.5C 27.5,155.167 27.5,155.833 27.5,156.5C 25.8333,156.5 24.1667,156.5 22.5,156.5C 22.5,155.833 22.5,155.167 22.5,154.5 Z"/></g>
<g><path style="opacity:0.93" fill="#5c8dca" d="M 343.5,154.5 C 344.833,154.5 346.167,154.5 347.5,154.5C 347.5,155.167 347.5,155.833 347.5,156.5C 346.167,156.5 344.833,156.5 343.5,156.5C 343.5,155.833 343.5,155.167 343.5,154.5 Z"/></g>
<g><path style="opacity:0.714" fill="#85a3d6" d="M 22.5,156.5 C 24.1667,156.5 25.8333,156.5 27.5,156.5C 27.5,157.167 27.5,157.833 27.5,158.5C 25.8333,158.5 24.1667,158.5 22.5,158.5C 22.5,157.833 22.5,157.167 22.5,156.5 Z"/></g>
<g><path style="opacity:0.93" fill="#3e7fc2" d="M 343.5,156.5 C 344.833,156.5 346.167,156.5 347.5,156.5C 347.5,157.167 347.5,157.833 347.5,158.5C 346.167,158.5 344.833,158.5 343.5,158.5C 343.5,157.833 343.5,157.167 343.5,156.5 Z"/></g>
<g><path style="opacity:0.714" fill="#6994cd" d="M 22.5,158.5 C 24.1667,158.5 25.8333,158.5 27.5,158.5C 27.5,159.167 27.5,159.833 27.5,160.5C 25.8333,160.5 24.1667,160.5 22.5,160.5C 22.5,159.833 22.5,159.167 22.5,158.5 Z"/></g>
<g><path style="opacity:0.93" fill="#1e75bb" d="M 343.5,158.5 C 344.833,158.5 346.167,158.5 347.5,158.5C 347.5,188.833 347.5,219.167 347.5,249.5C 346.167,249.5 344.833,249.5 343.5,249.5C 343.5,219.167 343.5,188.833 343.5,158.5 Z"/></g>
<g><path style="opacity:0.714" fill="#4c85c5" d="M 22.5,160.5 C 24.1667,160.5 25.8333,160.5 27.5,160.5C 27.5,161.167 27.5,161.833 27.5,162.5C 25.8333,162.5 24.1667,162.5 22.5,162.5C 22.5,161.833 22.5,161.167 22.5,160.5 Z"/></g>
<g><path style="opacity:0.714" fill="#1e75bb" d="M 22.5,162.5 C 24.1667,162.5 25.8333,162.5 27.5,162.5C 27.5,191.833 27.5,221.167 27.5,250.5C 25.8333,250.5 24.1667,250.5 22.5,250.5C 22.5,221.167 22.5,191.833 22.5,162.5 Z"/></g>
<g><path style="opacity:0.788" fill="#4a84c5" d="M 184.5,169.5 C 185.833,169.5 187.167,169.5 188.5,169.5C 188.5,170.167 188.5,170.833 188.5,171.5C 187.167,171.5 185.833,171.5 184.5,171.5C 184.5,170.833 184.5,170.167 184.5,169.5 Z"/></g>
<g><path style="opacity:0.788" fill="#6892cd" d="M 184.5,171.5 C 185.833,171.5 187.167,171.5 188.5,171.5C 188.5,172.167 188.5,172.833 188.5,173.5C 187.167,173.5 185.833,173.5 184.5,173.5C 184.5,172.833 184.5,172.167 184.5,171.5 Z"/></g>
<g><path style="opacity:0.788" fill="#83a2d5" d="M 184.5,173.5 C 185.833,173.5 187.167,173.5 188.5,173.5C 188.5,174.167 188.5,174.833 188.5,175.5C 187.167,175.5 185.833,175.5 184.5,175.5C 184.5,174.833 184.5,174.167 184.5,173.5 Z"/></g>
<g><path style="opacity:0.788" fill="#9bb2dd" d="M 184.5,175.5 C 185.833,175.5 187.167,175.5 188.5,175.5C 188.5,176.167 188.5,176.833 188.5,177.5C 187.167,177.5 185.833,177.5 184.5,177.5C 184.5,176.833 184.5,176.167 184.5,175.5 Z"/></g>
<g><path style="opacity:0.788" fill="#b2c2e5" d="M 184.5,177.5 C 185.833,177.5 187.167,177.5 188.5,177.5C 188.5,178.167 188.5,178.833 188.5,179.5C 187.167,179.5 185.833,179.5 184.5,179.5C 184.5,178.833 184.5,178.167 184.5,177.5 Z"/></g>
<g><path style="opacity:0.788" fill="#c8d3ed" d="M 184.5,179.5 C 185.833,179.5 187.167,179.5 188.5,179.5C 188.5,180.167 188.5,180.833 188.5,181.5C 187.167,181.5 185.833,181.5 184.5,181.5C 184.5,180.833 184.5,180.167 184.5,179.5 Z"/></g>
<g><path style="opacity:0.788" fill="#e1e6f5" d="M 184.5,181.5 C 185.833,181.5 187.167,181.5 188.5,181.5C 188.5,182.5 188.5,183.5 188.5,184.5C 187.167,184.5 185.833,184.5 184.5,184.5C 184.5,183.5 184.5,182.5 184.5,181.5 Z"/></g>
<g><path style="opacity:0.07" fill="#fbfcfd" d="M 184.5,184.5 C 185.833,184.5 187.167,184.5 188.5,184.5C 188.38,185.586 187.713,186.253 186.5,186.5C 185.287,186.253 184.62,185.586 184.5,184.5 Z"/></g>
<g><path style="opacity:0.801" fill="#6c6e70" d="M 171.5,195.5 C 181.938,195.049 192.271,195.549 202.5,197C 203.126,197.75 203.626,198.584 204,199.5C 204.915,205.944 204.581,212.277 203,218.5C 192.243,219.653 181.41,219.82 170.5,219C 169.874,218.25 169.374,217.416 169,216.5C 168.333,210.5 168.333,204.5 169,198.5C 170.045,197.627 170.878,196.627 171.5,195.5 Z M 174.5,202.5 C 176.833,202.5 179.167,202.5 181.5,202.5C 181.5,204.833 181.5,207.167 181.5,209.5C 179.167,209.5 176.833,209.5 174.5,209.5C 174.5,207.167 174.5,204.833 174.5,202.5 Z"/></g>
<g><path style="opacity:0.855" fill="#6c6e70" d="M 170.5,220.5 C 180.839,220.334 191.172,220.5 201.5,221C 202.416,221.374 203.25,221.874 204,222.5C 204.639,225.112 205.806,227.446 207.5,229.5C 207.023,230.478 206.357,231.311 205.5,232C 192.833,232.667 180.167,232.667 167.5,232C 166.572,231.612 165.905,230.945 165.5,230C 166.516,226.418 168.183,223.251 170.5,220.5 Z M 182.5,228.5 C 185.073,228.148 187.406,228.648 189.5,230C 188.333,230.167 187.167,230.333 186,230.5C 184.319,230.392 183.152,229.725 182.5,228.5 Z"/></g>
<g><path style="opacity:0.798" fill="#f6f7fc" d="M 156.5,230.5 C 155.5,230.5 154.5,230.5 153.5,230.5C 154.74,228.015 155.74,228.015 156.5,230.5 Z"/></g>
<g><path style="opacity:0.631" fill="#f6f7fc" d="M 223.5,230.5 C 222.5,230.5 221.5,230.5 220.5,230.5C 220.957,228.443 221.957,228.443 223.5,230.5 Z"/></g>
<g><path style="opacity:0.816" fill="#d0d9f0" d="M 153.5,230.5 C 154.5,230.5 155.5,230.5 156.5,230.5C 158.985,231.74 158.985,232.74 156.5,233.5C 154.5,232.833 152.5,232.167 150.5,231.5C 151.391,230.89 152.391,230.557 153.5,230.5 Z"/></g>
<g><path style="opacity:0.8" fill="#d1daf0" d="M 220.5,230.5 C 221.5,230.5 222.5,230.5 223.5,230.5C 225.027,230.427 226.027,231.094 226.5,232.5C 223.833,232.5 221.167,232.5 218.5,232.5C 218.833,231.5 219.5,230.833 220.5,230.5 Z"/></g>
<g><path style="opacity:0.936" fill="#b0c1e4" d="M 150.5,231.5 C 152.5,232.167 154.5,232.833 156.5,233.5C 156.158,234.338 155.492,234.672 154.5,234.5C 151.833,234.5 149.167,234.5 146.5,234.5C 147.795,233.512 149.128,232.512 150.5,231.5 Z"/></g>
<g><path style="opacity:0.991" fill="#a3b8e0" d="M 218.5,232.5 C 221.167,232.5 223.833,232.5 226.5,232.5C 228.153,232.66 229.486,233.326 230.5,234.5C 227.833,234.5 225.167,234.5 222.5,234.5C 220.847,234.34 219.514,233.674 218.5,232.5 Z"/></g>
<g><path style="opacity:0.925" fill="#8aa7d7" d="M 144.5,235.5 C 144.842,234.662 145.508,234.328 146.5,234.5C 149.167,234.5 151.833,234.5 154.5,234.5C 153.71,235.401 152.71,236.068 151.5,236.5C 149.393,235.532 147.059,235.198 144.5,235.5 Z"/></g>
<g><path style="opacity:0.868" fill="#83a2d5" d="M 222.5,234.5 C 225.167,234.5 227.833,234.5 230.5,234.5C 230.833,234.5 231.167,234.5 231.5,234.5C 229.167,235.167 226.833,235.833 224.5,236.5C 223.5,236.167 222.833,235.5 222.5,234.5 Z"/></g>
<g><path style="opacity:0.939" fill="#6893cd" d="M 144.5,235.5 C 147.059,235.198 149.393,235.532 151.5,236.5C 151.158,237.338 150.492,237.672 149.5,237.5C 146.833,237.5 144.167,237.5 141.5,237.5C 141.973,236.094 142.973,235.427 144.5,235.5 Z"/></g>
<g><path style="opacity:0.835" fill="#6591cc" d="M 231.5,234.5 C 232.167,234.5 232.5,234.833 232.5,235.5C 230.5,236.167 228.5,236.833 226.5,237.5C 225.833,237.167 225.167,236.833 224.5,236.5C 226.833,235.833 229.167,235.167 231.5,234.5 Z"/></g>
<g><path style="opacity:0.995" fill="#4381c3" d="M 232.5,235.5 C 233.71,235.932 234.71,236.599 235.5,237.5C 232.833,237.5 230.167,237.5 227.5,237.5C 227.167,237.5 226.833,237.5 226.5,237.5C 228.5,236.833 230.5,236.167 232.5,235.5 Z"/></g>
<g><path style="opacity:0.708" fill="#1e75bb" d="M 227.5,237.5 C 230.167,237.5 232.833,237.5 235.5,237.5C 259.301,250.568 282.968,263.901 306.5,277.5C 304.393,278.468 302.059,278.802 299.5,278.5C 275.167,265.336 251.167,251.669 227.5,237.5 Z"/></g>
<g><path style="opacity:0.715" fill="#1f75bb" d="M 141.5,237.5 C 144.167,237.5 146.833,237.5 149.5,237.5C 122.501,253.669 95.1672,269.336 67.5,284.5C 64.8333,284.5 62.1667,284.5 59.5,284.5C 86.4994,268.331 113.833,252.664 141.5,237.5 Z"/></g>
<g><path style="opacity:0.93" fill="#4b85c5" d="M 343.5,249.5 C 344.833,249.5 346.167,249.5 347.5,249.5C 347.5,250.167 347.5,250.833 347.5,251.5C 346.167,251.5 344.833,251.5 343.5,251.5C 343.5,250.833 343.5,250.167 343.5,249.5 Z"/></g>
<g><path style="opacity:0.714" fill="#5689c8" d="M 22.5,250.5 C 24.1667,250.5 25.8333,250.5 27.5,250.5C 27.5,251.5 27.5,252.5 27.5,253.5C 25.8333,253.5 24.1667,253.5 22.5,253.5C 22.5,252.5 22.5,251.5 22.5,250.5 Z"/></g>
<g><path style="opacity:0.93" fill="#6993cd" d="M 343.5,251.5 C 344.833,251.5 346.167,251.5 347.5,251.5C 347.5,252.167 347.5,252.833 347.5,253.5C 346.167,253.5 344.833,253.5 343.5,253.5C 343.5,252.833 343.5,252.167 343.5,251.5 Z"/></g>
<g><path style="opacity:0.714" fill="#7d9fd3" d="M 22.5,253.5 C 24.1667,253.5 25.8333,253.5 27.5,253.5C 27.5,254.167 27.5,254.833 27.5,255.5C 25.8333,255.5 24.1667,255.5 22.5,255.5C 22.5,254.833 22.5,254.167 22.5,253.5 Z"/></g>
<g><path style="opacity:0.93" fill="#83a3d5" d="M 343.5,253.5 C 344.833,253.5 346.167,253.5 347.5,253.5C 347.5,254.167 347.5,254.833 347.5,255.5C 346.167,255.5 344.833,255.5 343.5,255.5C 343.5,254.833 343.5,254.167 343.5,253.5 Z"/></g>
<g><path style="opacity:0.714" fill="#9ab1dd" d="M 22.5,255.5 C 24.1667,255.5 25.8333,255.5 27.5,255.5C 27.5,256.5 27.5,257.5 27.5,258.5C 25.8333,258.5 24.1667,258.5 22.5,258.5C 22.5,257.5 22.5,256.5 22.5,255.5 Z"/></g>
<g><path style="opacity:0.93" fill="#9bb2dd" d="M 343.5,255.5 C 344.833,255.5 346.167,255.5 347.5,255.5C 347.5,256.167 347.5,256.833 347.5,257.5C 346.167,257.5 344.833,257.5 343.5,257.5C 343.5,256.833 343.5,256.167 343.5,255.5 Z"/></g>
<g><path style="opacity:0.844" fill="#6c6e70" d="M 232.5,257.5 C 236.555,257.386 239.888,258.886 242.5,262C 238.874,265.152 234.874,267.819 230.5,270C 232.455,272.071 234.788,272.738 237.5,272C 240.646,270.014 243.813,268.181 247,266.5C 249.598,267.301 251.931,268.634 254,270.5C 254.688,271.332 254.521,271.998 253.5,272.5C 250.328,274.252 247.328,276.252 244.5,278.5C 245.914,279.624 247.414,280.624 249,281.5C 253.565,278.554 258.232,275.887 263,273.5C 265.881,274.358 268.381,275.858 270.5,278C 263.702,282.904 256.702,287.571 249.5,292C 248.092,292.315 246.759,291.982 245.5,291C 234.468,284.823 223.801,278.156 213.5,271C 213.645,270.228 213.978,269.561 214.5,269C 221.073,265.891 227.073,262.058 232.5,257.5 Z"/></g>
<g><path style="opacity:0.93" fill="#b3c3e5" d="M 343.5,257.5 C 344.833,257.5 346.167,257.5 347.5,257.5C 347.5,258.167 347.5,258.833 347.5,259.5C 346.167,259.5 344.833,259.5 343.5,259.5C 343.5,258.833 343.5,258.167 343.5,257.5 Z"/></g>
<g><path style="opacity:0.714" fill="#bbc9e8" d="M 22.5,258.5 C 24.1667,258.5 25.8333,258.5 27.5,258.5C 27.5,259.167 27.5,259.833 27.5,260.5C 25.8333,260.5 24.1667,260.5 22.5,260.5C 22.5,259.833 22.5,259.167 22.5,258.5 Z"/></g>
<g><path style="opacity:0.93" fill="#c8d3ed" d="M 343.5,259.5 C 344.833,259.5 346.167,259.5 347.5,259.5C 347.5,260.167 347.5,260.833 347.5,261.5C 346.167,261.5 344.833,261.5 343.5,261.5C 343.5,260.833 343.5,260.167 343.5,259.5 Z"/></g>
<g><path style="opacity:0.714" fill="#d1daf0" d="M 22.5,260.5 C 24.1667,260.5 25.8333,260.5 27.5,260.5C 27.5,261.167 27.5,261.833 27.5,262.5C 25.8333,262.5 24.1667,262.5 22.5,262.5C 22.5,261.833 22.5,261.167 22.5,260.5 Z"/></g>
<g><path style="opacity:0.93" fill="#e2e7f6" d="M 343.5,261.5 C 344.833,261.5 346.167,261.5 347.5,261.5C 347.5,262.5 347.5,263.5 347.5,264.5C 346.167,264.5 344.833,264.5 343.5,264.5C 343.5,263.5 343.5,262.5 343.5,261.5 Z"/></g>
<g><path style="opacity:0.714" fill="#e9ebf8" d="M 22.5,262.5 C 24.1667,262.5 25.8333,262.5 27.5,262.5C 27.5,263.167 27.5,263.833 27.5,264.5C 25.8333,264.5 24.1667,264.5 22.5,264.5C 22.5,263.833 22.5,263.167 22.5,262.5 Z"/></g>
<g><path style="opacity:0.063" fill="#fcfcfe" d="M 22.5,264.5 C 24.1667,264.5 25.8333,264.5 27.5,264.5C 27.2089,265.649 26.3756,266.316 25,266.5C 23.6244,266.316 22.7911,265.649 22.5,264.5 Z"/></g>
<g><path style="opacity:0.08" fill="#fcfdfe" d="M 343.5,264.5 C 344.833,264.5 346.167,264.5 347.5,264.5C 347.38,265.586 346.713,266.253 345.5,266.5C 344.287,266.253 343.62,265.586 343.5,264.5 Z"/></g>
<g><path style="opacity:0.817" fill="#6c6e70" d="M 10.5,269.5 C 20.8387,269.334 31.172,269.5 41.5,270C 42.1258,270.75 42.6258,271.584 43,272.5C 43.6667,278.5 43.6667,284.5 43,290.5C 42.1667,291.333 41.3333,292.167 40.5,293C 30.5,293.667 20.5,293.667 10.5,293C 10,292.5 9.5,292 9,291.5C 8.80887,285.917 8.30887,280.417 7.5,275C 8.22285,272.982 9.22285,271.148 10.5,269.5 Z M 14.5,275.5 C 16.5,275.5 18.5,275.5 20.5,275.5C 20.5,277.833 20.5,280.167 20.5,282.5C 18.5,282.5 16.5,282.5 14.5,282.5C 14.5,280.167 14.5,277.833 14.5,275.5 Z"/></g>
<g><path style="opacity:0.806" fill="#6c6e70" d="M 328.5,269.5 C 339.172,269.333 349.839,269.5 360.5,270C 362.014,273.638 362.68,277.471 362.5,281.5C 362.579,284.955 362.079,288.288 361,291.5C 360.5,292 360,292.5 359.5,293C 349.5,293.667 339.5,293.667 329.5,293C 328.299,292.097 327.465,290.931 327,289.5C 326.01,282.661 326.51,275.995 328.5,269.5 Z M 333.5,275.5 C 335.5,275.5 337.5,275.5 339.5,275.5C 339.5,277.833 339.5,280.167 339.5,282.5C 337.5,282.5 335.5,282.5 333.5,282.5C 333.5,280.167 333.5,277.833 333.5,275.5 Z"/></g>
<g><path style="opacity:0.867" fill="#6c6e70" d="M 202.5,278.5 C 207.9,278.188 212.567,279.855 216.5,283.5C 217.246,284.736 217.579,286.07 217.5,287.5C 225.723,286.056 231.723,288.889 235.5,296C 231.178,303.512 224.845,308.678 216.5,311.5C 204.881,305.69 193.548,299.357 182.5,292.5C 181.269,291.349 181.269,290.183 182.5,289C 188.544,284.146 195.211,280.646 202.5,278.5 Z M 201.5,287.5 C 208.127,287.714 208.794,289.38 203.5,292.5C 201.833,291.667 200.167,290.833 198.5,290C 199.571,289.148 200.571,288.315 201.5,287.5 Z M 214.5,295.5 C 216.833,295.5 219.167,295.5 221.5,295.5C 221.374,298.468 219.874,300.468 217,301.5C 215.681,299.513 213.848,298.346 211.5,298C 212.942,297.623 213.942,296.79 214.5,295.5 Z"/></g>
<g><path style="opacity:1" fill="#4c85c5" d="M 306.5,277.5 C 307.167,277.833 307.833,278.167 308.5,278.5C 306.393,279.468 304.059,279.802 301.5,279.5C 300.508,279.672 299.842,279.338 299.5,278.5C 302.059,278.802 304.393,278.468 306.5,277.5 Z"/></g>
<g><path style="opacity:0.916" fill="#7097cf" d="M 308.5,278.5 C 309.5,278.833 310.167,279.5 310.5,280.5C 307.833,280.5 305.167,280.5 302.5,280.5C 301.833,280.5 301.5,280.167 301.5,279.5C 304.059,279.802 306.393,279.468 308.5,278.5 Z"/></g>
<g><path style="opacity:0.85" fill="#9db4de" d="M 302.5,280.5 C 305.167,280.5 307.833,280.5 310.5,280.5C 311.609,280.557 312.609,280.89 313.5,281.5C 311.393,282.468 309.059,282.802 306.5,282.5C 304.847,282.34 303.514,281.674 302.5,280.5 Z"/></g>
<g><path style="opacity:0.997" fill="#c4d0eb" d="M 313.5,281.5 C 314.833,282.5 314.833,283.5 313.5,284.5C 312.167,284.5 310.833,284.5 309.5,284.5C 307.973,284.573 306.973,283.906 306.5,282.5C 309.059,282.802 311.393,282.468 313.5,281.5 Z"/></g>
<g><path style="opacity:0.727" fill="#eef1fa" d="M 309.5,284.5 C 310.833,284.5 312.167,284.5 313.5,284.5C 313.631,285.376 313.298,286.043 312.5,286.5C 311.261,286.058 310.261,285.391 309.5,284.5 Z"/></g>
<g><path style="opacity:0.936" fill="#6591cb" d="M 59.5,284.5 C 62.1667,284.5 64.8333,284.5 67.5,284.5C 66.4863,285.674 65.153,286.34 63.5,286.5C 60.9407,286.802 58.6074,286.468 56.5,285.5C 57.391,284.89 58.391,284.557 59.5,284.5 Z"/></g>
<g><path style="opacity:0.885" fill="#91acd9" d="M 56.5,285.5 C 58.6074,286.468 60.9407,286.802 63.5,286.5C 63.0269,287.906 62.0269,288.573 60.5,288.5C 57.8333,288.5 55.1667,288.5 52.5,288.5C 53.4363,287.026 54.7697,286.026 56.5,285.5 Z"/></g>
<g><path style="opacity:0.869" fill="#c5d0ec" d="M 52.5,288.5 C 55.1667,288.5 57.8333,288.5 60.5,288.5C 59.205,289.488 57.8717,290.488 56.5,291.5C 55.0813,290.549 53.4147,290.216 51.5,290.5C 51.3284,289.508 51.6618,288.842 52.5,288.5 Z"/></g>
<g><path style="opacity:0.386" fill="#eceff9" d="M 51.5,290.5 C 53.4147,290.216 55.0813,290.549 56.5,291.5C 54.4143,293.023 52.7476,292.69 51.5,290.5 Z"/></g>
<g><path style="opacity:0.846" fill="#6c6e70" d="M 9.5,294.5 C 20.1719,294.333 30.8385,294.5 41.5,295C 43.9238,297.178 45.5905,299.845 46.5,303C 46.1802,304.653 45.1802,305.653 43.5,306C 31.5,306.667 19.5,306.667 7.5,306C 6.4216,305.326 5.75493,304.326 5.5,303C 5.78967,299.61 7.123,296.777 9.5,294.5 Z"/></g>
<g><path style="opacity:0.843" fill="#6c6e70" d="M 328.5,294.5 C 339.172,294.333 349.839,294.5 360.5,295C 362.719,297.324 364.385,299.99 365.5,303C 365.18,304.653 364.18,305.653 362.5,306C 350.5,306.667 338.5,306.667 326.5,306C 325.09,305.632 324.09,304.799 323.5,303.5C 324.925,300.312 326.592,297.312 328.5,294.5 Z"/></g>
<g><path style="opacity:0.849" fill="#6c6e70" d="M 171.5,295.5 C 178.414,299.294 185.414,303.128 192.5,307C 201.893,312.09 202.893,318.424 195.5,326C 187.492,331.049 178.826,332.716 169.5,331C 159.945,326.391 150.612,321.557 141.5,316.5C 142.903,312.68 145.736,310.347 150,309.5C 157.49,313.65 164.99,317.817 172.5,322C 178.869,324.718 184.203,323.384 188.5,318C 180.51,312.003 172.176,306.503 163.5,301.5C 165.902,299.091 168.569,297.091 171.5,295.5 Z"/></g>
<g><path style="opacity:0.869" fill="#f3f5fb" d="M 51.5,318.5 C 50.1667,318.5 48.8333,318.5 47.5,318.5C 48.8333,315.833 50.1667,315.833 51.5,318.5 Z"/></g>
<g><path style="opacity:0.982" fill="#ced8ef" d="M 47.5,318.5 C 48.8333,318.5 50.1667,318.5 51.5,318.5C 52.609,318.557 53.609,318.89 54.5,319.5C 52.0521,320.473 49.3854,320.806 46.5,320.5C 46.3284,319.508 46.6618,318.842 47.5,318.5 Z"/></g>
<g><path style="opacity:0.85" fill="#6c6e70" d="M 136.5,319.5 C 137.5,319.5 138.5,319.5 139.5,319.5C 140.167,322.167 140.833,324.833 141.5,327.5C 137.489,327.502 133.822,328.668 130.5,331C 127.112,336.942 128.779,340.942 135.5,343C 145.685,345.899 153.852,343.066 160,334.5C 162.464,335.161 164.964,335.661 167.5,336C 168.672,337.868 168.505,339.702 167,341.5C 157.502,351.09 146.002,354.59 132.5,352C 126.525,350.597 121.358,347.763 117,343.5C 113.134,335.757 114.967,329.59 122.5,325C 127.017,322.445 131.684,320.612 136.5,319.5 Z"/></g>
<g><path style="opacity:0.88" fill="#f1f3fa" d="M 321.5,320.5 C 319.901,320.768 318.568,320.434 317.5,319.5C 319.263,318.046 320.597,318.38 321.5,320.5 Z"/></g>
<g><path style="opacity:0.866" fill="#b5c5e6" d="M 54.5,319.5 C 55.1667,319.833 55.8333,320.167 56.5,320.5C 54.1667,321.167 51.8333,321.833 49.5,322.5C 48.2905,322.068 47.2905,321.401 46.5,320.5C 49.3854,320.806 52.0521,320.473 54.5,319.5 Z"/></g>
<g><path style="opacity:0.773" fill="#d9e0f3" d="M 317.5,319.5 C 318.568,320.434 319.901,320.768 321.5,320.5C 321.5,320.833 321.5,321.167 321.5,321.5C 319.265,321.795 317.265,321.461 315.5,320.5C 316.167,320.167 316.833,319.833 317.5,319.5 Z"/></g>
<g><path style="opacity:0.934" fill="#9eb4de" d="M 56.5,320.5 C 57.5,320.833 58.1667,321.5 58.5,322.5C 55.9407,322.198 53.6074,322.532 51.5,323.5C 50.8333,323.167 50.1667,322.833 49.5,322.5C 51.8333,321.833 54.1667,321.167 56.5,320.5 Z"/></g>
<g><path style="opacity:0.83" fill="#bfccea" d="M 315.5,320.5 C 317.265,321.461 319.265,321.795 321.5,321.5C 321.938,321.435 322.272,321.601 322.5,322C 321.756,323.039 320.756,323.539 319.5,323.5C 316.941,323.802 314.607,323.468 312.5,322.5C 313.5,321.833 314.5,321.167 315.5,320.5 Z"/></g>
<g><path style="opacity:0.982" fill="#779bd1" d="M 51.5,323.5 C 53.6074,322.532 55.9407,322.198 58.5,322.5C 59.609,322.557 60.609,322.89 61.5,323.5C 59.1667,324.167 56.8333,324.833 54.5,325.5C 53.5,324.833 52.5,324.167 51.5,323.5 Z"/></g>
<g><path style="opacity:0.864" fill="#9bb2dd" d="M 312.5,322.5 C 314.607,323.468 316.941,323.802 319.5,323.5C 319.158,324.338 318.492,324.672 317.5,324.5C 314.941,324.802 312.607,324.468 310.5,323.5C 311.167,323.167 311.833,322.833 312.5,322.5 Z"/></g>
<g><path style="opacity:1" fill="#5589c7" d="M 61.5,323.5 C 62.5,323.833 63.1667,324.5 63.5,325.5C 60.9407,325.198 58.6074,325.532 56.5,326.5C 55.8333,326.167 55.1667,325.833 54.5,325.5C 56.8333,324.833 59.1667,324.167 61.5,323.5 Z"/></g>
<g><path style="opacity:0.967" fill="#82a2d5" d="M 310.5,323.5 C 312.607,324.468 314.941,324.802 317.5,324.5C 317.167,325.5 316.5,326.167 315.5,326.5C 313.167,325.833 310.833,325.167 308.5,324.5C 309.167,324.167 309.833,323.833 310.5,323.5 Z"/></g>
<g><path style="opacity:0.922" fill="#618fcb" d="M 308.5,324.5 C 310.833,325.167 313.167,325.833 315.5,326.5C 314.609,327.11 313.609,327.443 312.5,327.5C 309.941,327.802 307.607,327.468 305.5,326.5C 306.5,325.833 307.5,325.167 308.5,324.5 Z"/></g>
<g><path style="opacity:0.713" fill="#1f75bb" d="M 56.5,326.5 C 58.6074,325.532 60.9407,325.198 63.5,325.5C 91.8335,340.998 119.834,356.998 147.5,373.5C 144.833,373.5 142.167,373.5 139.5,373.5C 111.671,358.086 84.0044,342.42 56.5,326.5 Z"/></g>
<g><path style="opacity:0.723" fill="#1f75bb" d="M 305.5,326.5 C 307.607,327.468 309.941,327.802 312.5,327.5C 285.501,343.669 258.167,359.336 230.5,374.5C 228.167,374.5 225.833,374.5 223.5,374.5C 250.502,357.997 277.835,341.997 305.5,326.5 Z"/></g>
<g><path style="opacity:0.8" fill="#6c6e70" d="M 170.5,366.5 C 181.187,366.168 191.854,366.501 202.5,367.5C 202.808,368.308 203.308,368.975 204,369.5C 204.667,375.167 204.667,380.833 204,386.5C 203.07,388.552 201.57,390.052 199.5,391C 203.53,392.687 206.197,395.687 207.5,400C 206.556,401.477 205.223,402.477 203.5,403C 197.833,403.167 192.167,403.333 186.5,403.5C 179.757,403.607 173.09,403.107 166.5,402C 165.978,401.439 165.645,400.772 165.5,400C 166.853,397.62 168.019,395.12 169,392.5C 170.067,391.809 171.234,391.309 172.5,391C 171.333,389.833 170.167,388.667 169,387.5C 167.954,380.297 168.454,373.297 170.5,366.5 Z M 174.5,372.5 C 176.833,372.5 179.167,372.5 181.5,372.5C 181.5,374.833 181.5,377.167 181.5,379.5C 179.167,379.5 176.833,379.5 174.5,379.5C 174.5,377.167 174.5,374.833 174.5,372.5 Z"/></g>
<g><path style="opacity:0.925" fill="#759ad0" d="M 139.5,373.5 C 142.167,373.5 144.833,373.5 147.5,373.5C 149.153,373.66 150.486,374.326 151.5,375.5C 148.833,375.5 146.167,375.5 143.5,375.5C 141.847,375.34 140.514,374.674 139.5,373.5 Z"/></g>
<g><path style="opacity:0.862" fill="#6792cc" d="M 223.5,374.5 C 225.833,374.5 228.167,374.5 230.5,374.5C 230.027,375.906 229.027,376.573 227.5,376.5C 224.833,376.5 222.167,376.5 219.5,376.5C 220.514,375.326 221.847,374.66 223.5,374.5 Z"/></g>
<g><path style="opacity:0.863" fill="#97afdc" d="M 143.5,375.5 C 146.167,375.5 148.833,375.5 151.5,375.5C 152.492,375.328 153.158,375.662 153.5,376.5C 150.615,376.194 147.948,376.527 145.5,377.5C 144.5,377.167 143.833,376.5 143.5,375.5 Z"/></g>
<g><path style="opacity:0.968" fill="#bfcdea" d="M 145.5,377.5 C 147.948,376.527 150.615,376.194 153.5,376.5C 155.985,377.26 155.985,378.26 153.5,379.5C 152.5,379.5 151.5,379.5 150.5,379.5C 148.716,379.107 147.05,378.441 145.5,377.5 Z"/></g>
<g><path style="opacity:1" fill="#a0b6df" d="M 219.5,376.5 C 222.167,376.5 224.833,376.5 227.5,376.5C 226.486,377.674 225.153,378.34 223.5,378.5C 220.941,378.802 218.607,378.468 216.5,377.5C 217.391,376.89 218.391,376.557 219.5,376.5 Z"/></g>
<g><path style="opacity:0.837" fill="#becce9" d="M 216.5,377.5 C 218.607,378.468 220.941,378.802 223.5,378.5C 223.167,379.5 222.5,380.167 221.5,380.5C 219.735,379.539 217.735,379.205 215.5,379.5C 215.328,378.508 215.662,377.842 216.5,377.5 Z"/></g>
<g><path style="opacity:1" fill="#dde3f4" d="M 215.5,379.5 C 217.735,379.205 219.735,379.539 221.5,380.5C 218.851,383.201 216.851,382.868 215.5,379.5 Z"/></g>
<g><path style="opacity:0.082" fill="#f3f5fb" d="M 150.5,379.5 C 151.5,379.5 152.5,379.5 153.5,379.5C 152.74,381.985 151.74,381.985 150.5,379.5 Z"/></g>
</svg>
